<svg xmlns="http://www.w3.org/2000/svg" width="62.518" height="62.518" viewBox="0 0 62.518 62.518"><defs><style>


.a{fill:#d8d8d8;}.b{fill:#d3cfc9;}.c{fill:#f2f2f2;}.d{fill:#e86b2c;}.e{fill:#d35720;}.f{fill:#ed7743;}.g{fill:#f97d46;}.h{fill:#e56f41;}.i{fill:#efa726;}.j{fill:#db8d0f;}.k{fill:#f4af40;}.l{fill:#6ad3ef;}.m{fill:#47b7d1;}.n{fill:#89e3f7;}.o{fill:#54c6d1;}.p{fill:#db9633;}

</style></defs><path class="a" d="M61.456,34.787a27,27,0,1,0,27.381,28.68A26.942,26.942,0,0,0,61.456,34.787Z" transform="translate(-30.659 -30.534)"/><path class="b" d="M64.78,87.993a26.618,26.618,0,0,1-1.667-53.182c-.548-.023-1.1-.031-1.656-.021A27,27,0,1,0,70.529,87.37,26.709,26.709,0,0,1,64.78,87.993Z" transform="translate(-30.66 -30.539)"/><path class="c" d="M259.66,37.915a31.257,31.257,0,0,0,14.788,45.413A27.012,27.012,0,0,0,259.66,37.915Z" transform="translate(-223.83 -33.285)"/><path class="d" d="M116.614,110.645c.028.05.506.97.506,1.028a12.451,12.451,0,0,1,1.027,4.465h0c.6,5.6,3.853,5,3.853,5a3.544,3.544,0,0,1,.473-.725l-5.09,8.816a3.576,3.576,0,0,1,.392-.771s-1.11-3.112-6.26-.835h0a12.411,12.411,0,1,1,5.1-16.982Z" transform="translate(-81.923 -91.526)"/><path class="e" d="M97.721,110.212a12.393,12.393,0,0,1,9.373-6.129,12.411,12.411,0,1,0-.016,24.668A12.422,12.422,0,0,1,97.721,110.212Z" transform="translate(-81.879 -91.305)"/><path class="f" d="M263.9,140.859s-3.25.595-3.853-5h0a12.417,12.417,0,0,0-4.583-9.139,31.245,31.245,0,0,0,3.127,20.257,2.575,2.575,0,0,1,1.083,1.205l-.2.349.028.045,4.872-8.439A3.542,3.542,0,0,0,263.9,140.859Z" transform="translate(-223.828 -111.243)"/><path class="g" d="M122.489,104.3l-11.2,19.4a12.476,12.476,0,0,0,6.792,4.9l12.048-20.867A12.429,12.429,0,0,0,122.489,104.3Z" transform="translate(-97.699 -91.569)"/><g transform="translate(13.589 12.737)"><path class="h" d="M202.514,104.417c.161-.025.323-.047.486-.065-.02,0-.231-.026-.424-.04Z" transform="translate(-191.375 -104.311)"/><path class="h" d="M118.6,249.2a12.354,12.354,0,0,1-5.866-6.5l-1.444,2.5a12.445,12.445,0,0,0,6.792,4.9Z" transform="translate(-111.288 -225.798)"/></g><path class="i" d="M178.531,138.961l2.381-4.124a12.172,12.172,0,0,0-1.952-2.421l-12.048,20.867a12.142,12.142,0,0,0,3.073.48l6.9-11.957" transform="translate(-146.531 -116.246)"/><path class="j" d="M170.185,296.992a12.2,12.2,0,0,1-2.754-1.033l-.518.9a12.14,12.14,0,0,0,3.073.48Z" transform="translate(-146.532 -259.821)"/><path class="k" d="M255.1,140.23l3.114-5.394a12.168,12.168,0,0,0-1.952-2.421l-1.158,2.006A31.188,31.188,0,0,0,255.1,140.23Z" transform="translate(-223.837 -116.246)"/><path class="i" d="M125.641,104.972a12.331,12.331,0,0,0-3.154-.668l-11.2,19.4a12.323,12.323,0,0,0,2.155,2.4Z" transform="translate(-97.698 -91.568)"/><g transform="translate(13.589 12.737)"><path class="j" d="M112.733,242.7l-1.445,2.5a12.317,12.317,0,0,0,2.155,2.4l1.043-1.807A12.4,12.4,0,0,1,112.733,242.7Z" transform="translate(-111.288 -225.798)"/><path class="j" d="M202.576,104.311l-.061.106c.162-.025.324-.047.487-.066Q202.789,104.327,202.576,104.311Z" transform="translate(-191.376 -104.311)"/></g><path class="l" d="M323.021,331.449c-.221,0-.017-.186-3.112,3.913a3.9,3.9,0,1,0,6.223,0C323.029,331.252,323.237,331.449,323.021,331.449Z" transform="translate(-280.148 -290.976)"/><path class="m" d="M323.11,335.372,324.6,333.4c-1.494-1.977-1.418-1.946-1.626-1.946a.314.314,0,0,0-.251.125l-2.861,3.788a3.9,3.9,0,0,0,4.738,5.895A3.9,3.9,0,0,1,323.11,335.372Z" transform="translate(-280.096 -290.986)"/><path class="n" d="M334.084,331.449c-.216,0-.088-.091-2.369,2.93a31.351,31.351,0,0,0,6.044,4.631,3.9,3.9,0,0,0-.563-3.648C334.092,331.252,334.3,331.449,334.084,331.449Z" transform="translate(-291.211 -290.976)"/><path class="o" d="M333.742,336.207c.242-.576.373-.692,1.968-2.8-1.494-1.977-1.418-1.946-1.626-1.946s-.088-.091-2.369,2.929Q332.687,335.341,333.742,336.207Z" transform="translate(-291.211 -290.984)"/><path class="l" d="M368.353,278.328c-1.85-2.45-1.76-2.4-1.971-2.4s-.115-.056-1.971,2.4a2.471,2.471,0,0,0,1.318,3.873l.081-.3-.063.309a2.463,2.463,0,0,0,.934.065l-.039-.312.053.311A2.473,2.473,0,0,0,368.353,278.328Z" transform="translate(-319.474 -242.232)"/><path class="o" d="M366.088,280.16c-.171-1.225.487-1.845,1.372-3.018-.89-1.179-.872-1.216-1.074-1.216s-.115-.056-1.971,2.4a2.471,2.471,0,0,0,1.318,3.873l.081-.3-.063.309a2.47,2.47,0,0,0,.934.064l-.039-.312.053.311a2.427,2.427,0,0,0,.761-.228A2.458,2.458,0,0,1,366.088,280.16Z" transform="translate(-319.478 -242.234)"/><path class="l" d="M31.259,0A31.259,31.259,0,1,0,62.518,31.259,31.259,31.259,0,0,0,31.259,0Zm0,57.864A26.605,26.605,0,1,1,57.864,31.259,26.605,26.605,0,0,1,31.259,57.864Z" transform="translate(0 0)"/><path class="n" d="M311.006,57.69c14.973-17.634,6.179-45.17-16.519-50.616a31.287,31.287,0,0,0-2.984,4.145C312.768,14.7,321.172,40.8,306.155,56.1A30.963,30.963,0,0,0,311.006,57.69Z" transform="translate(-255.909 -6.21)"/><path class="k" d="M296.224,230.593a1.966,1.966,0,0,1,.72,2.685l-4.668,8.085a1.965,1.965,0,0,1-3.575-1.577l5.09-8.816A1.965,1.965,0,0,1,296.224,230.593Z" transform="translate(-253.368 -202.205)"/><path class="p" d="M290.326,240.672l5.09-8.816a1.969,1.969,0,0,1,1.452-.64,1.963,1.963,0,0,0-3.088-.241l-5.09,8.816a1.964,1.964,0,0,0,1.87,2.558A1.969,1.969,0,0,1,290.326,240.672Z" transform="translate(-253.358 -202.211)"/></svg>