<svg xmlns="http://www.w3.org/2000/svg" width="63.691" height="63.689" viewBox="0 0 63.691 63.689"><path style="fill:#ffdccc;" class="a" d="M76.284,36.043l-2.9-1.688a27.827,27.827,0,1,0,2.9,1.688Z" transform="translate(-28.99 -27.467)"/><path class="b" d="M63.863,86.211a27.111,27.111,0,1,1,4.165-53.9,27.8,27.8,0,1,0,1.44,53.32A27.2,27.2,0,0,1,63.863,86.211Z" transform="translate(-28.99 -27.472)"/><path class="c" d="M272.593,81.266a27.79,27.79,0,0,0-4.442-42.608l-2.9-1.688a27.831,27.831,0,0,0-7.955-2.616A31.849,31.849,0,0,0,272.593,81.266Z" transform="translate(-220.856 -30.081)"/><path class="d" d="M31.845.007A31.844,31.844,0,1,0,63.689,31.851,31.845,31.845,0,0,0,31.845.007Zm0,58.948a27.1,27.1,0,1,1,27.1-27.1A27.1,27.1,0,0,1,31.845,58.955Z" transform="translate(0 -0.007)"/><path style="fill:#f48356;" class="e" d="M309.137,58.235c15.456-18.1,6.209-46.343-17.052-51.7a31.917,31.917,0,0,0-3.068,4.239A27.1,27.1,0,0,1,304.156,56.65,31.524,31.524,0,0,0,309.137,58.235Z" transform="translate(-253.065 -5.724)"/><g transform="translate(11.646 28.029)"><path class="f" d="M321.193,234.82a.962.962,0,0,1,.472-1.275l5.1-2.339,4.609-5.531a.961.961,0,0,1,1.477,1.231c-5.17,6.2-4.807,5.829-5.086,5.956l-5.293,2.43A.961.961,0,0,1,321.193,234.82Z" transform="translate(-292.807 -225.33)"/><path class="f" d="M330,316.611l-2.061-3.043-5.469-2.421a.961.961,0,1,1,.778-1.758l5.721,2.533c.336.149.2.037,2.623,3.611A.961.961,0,0,1,330,316.611Z" transform="translate(-293.501 -298.86)"/><path class="f" d="M319.695,341.652l-.69-3.35-3.426-4.088a.961.961,0,0,1,1.474-1.235c3.881,4.631,3.718,4.369,3.786,4.7l.739,3.588a.961.961,0,0,1-1.883.387Z" transform="translate(-287.773 -319.288)"/><path class="f" d="M301.68,365.067a.962.962,0,0,1-.92-1.241,6.277,6.277,0,0,0-f1.227-6.21.961.961,0,0,1,1.344-1.374,8.182,8.182,0,0,1,1.722,8.144A.961.961,0,0,1,301.68,365.067Z" transform="translate(-273.67 -339.718)"/><path class="f" d="M104.225,235.292c-5.76-2.644-5.438-2.458-5.63-2.688l-4.748-5.7a.961.961,0,1,1,1.477-1.231l4.609,5.531,5.095,2.339a.961.961,0,1,1-.8,1.747Z" transform="translate(-93.623 -225.33)"/><path class="f" d="M110.164,316.867a.961.961,0,0,1-.257-1.334l2.216-3.271c.212-.314-.066-.13,6.128-2.872a.961.961,0,1,1,.778,1.758l-5.47,2.421-2.062,3.043A.961.961,0,0,1,110.164,316.867Z" transform="translate(-107.736 -298.86)"/><path class="f" d="M146.134,342.4a.961.961,0,0,1-.747-1.135c.805-3.912.735-3.763.943-4.011l3.581-4.274a.961.961,0,1,1,1.473,1.234l-3.426,4.088-.69,3.35A.961.961,0,0,1,146.134,342.4Z" transform="translate(-138.93 -319.289)"/><path class="f" d="M181.835,364.38a8.183,8.183,0,0,1,1.722-8.144.961.961,0,0,1,1.344,1.375,6.278,6.278,0,0,0-1.227,6.21.961.961,0,1,1-1.839.559Z" transform="translate(-170.502 -339.714)"/></g><g transform="translate(16.634 25.863)"><path class="g" d="M319.236,208.336a6.812,6.812,0,0,1-1.394-.173c-.145,2.6-3.237,4.751-5.57,5.91a9.507,9.507,0,0,1,1.526,2.186c2.288-1.19,6.744-4.06,6.689-8.343A5.944,5.944,0,0,1,319.236,208.336Z" transform="translate(-290.061 -207.917)"/><path class="g" d="M142,214.1a17.032,17.032,0,0,1-2.907-1.8c-1.733-1.358-2.645-2.747-2.723-4.139a6.815,6.815,0,0,1-1.394.173,5.951,5.951,0,0,1-1.251-.419c-.055,4.327,4.494,7.212,6.76,8.38A9.532,9.532,0,0,1,142,214.1Z" transform="translate(-133.722 -207.916)"/></g><g transform="translate(26.146 25.086)"><ellipse class="d" cx="1.688" cy="1.688" rx="1.688" ry="1.688" transform="translate(0 0)"/><ellipse class="d" cx="1.688" cy="1.688" rx="1.688" ry="1.688" transform="translate(8.115 0)"/></g><path class="f" d="M324.45,116.137a.346.346,0,0,0-.043-.021.39.39,0,0,0-.054-.032c-.924-.444-1.523-.49-1.77-.151a1,1,0,0,0-.072.786.372.372,0,0,0,.037.091c1.528,2.685-.48,5.332-.8,5.728a7.152,7.152,0,0,0-4.1-1.738.384.384,0,0,0-.429.429,10.374,10.374,0,0,0,.894,3.1,5.849,5.849,0,0,0,5.422,3.588.387.387,0,0,0,.084-.009,5.539,5.539,0,0,0,4.3-4.613A6.638,6.638,0,0,0,324.45,116.137Z" transform="translate(-277.751 -101.318)"/><path class="h" d="M320,157.221a8.62,8.62,0,0,0-2.364-.617.384.384,0,0,0-.429.429,10.37,10.37,0,0,0,.894,3.1,5.849,5.849,0,0,0,5.422,3.588,5.392,5.392,0,0,0,2.6-1.271C325.852,162.529,321.465,162.643,320,157.221Z" transform="translate(-277.749 -137.121)"/><path class="f" d="M118.474,120.835a7.156,7.156,0,0,0-4.1,1.738c-.326-.4-2.33-3.046-.8-5.729a.377.377,0,0,0,.038-.091c.319-1.2-.783-1.209-1.873-.618a6.636,6.636,0,0,0-3.532,7.187,5.545,5.545,0,0,0,4.3,4.623.392.392,0,0,0,.084.009h.011c3.829-.11,5.857-3.083,6.305-6.69A.384.384,0,0,0,118.474,120.835Z" transform="translate(-94.67 -101.352)"/><path class="h" d="M113.193,117.708a4.36,4.36,0,0,1,.376-.866.378.378,0,0,0,.038-.091c.319-1.2-.783-1.209-1.873-.618a6.636,6.636,0,0,0-3.532,7.187,5.545,5.545,0,0,0,4.3,4.623.391.391,0,0,0,.084.009h.011a7.22,7.22,0,0,0,.935-.086C110.175,125.782,110.043,120.408,113.193,117.708Z" transform="translate(-94.671 -101.351)"/><path class="d" d="M199.025,242.552a9.5,9.5,0,1,1-9.5-9.5A9.5,9.5,0,0,1,199.025,242.552Z" transform="translate(-157.636 -204.065)"/><path class="i" d="M182.767,242.547a9.5,9.5,0,0,1,8.128-9.4,9.5,9.5,0,1,0,0,18.794A9.5,9.5,0,0,1,182.767,242.547Z" transform="translate(-157.634 -204.06)"/><path class="j" d="M259.42,233.134a31.751,31.751,0,0,0,7.788,14.334A9.5,9.5,0,0,0,259.42,233.134Z" transform="translate(-227.149 -204.134)"/></svg>