<svg xmlns="http://www.w3.org/2000/svg" width="65.821" height="65.819" viewBox="0 0 65.821 65.819"><defs><style>.a{fill:#e28160;}.b{fill:#c96347;}.c{fill:#e0af60;}.d{fill:#ed8c72;}.e{fill:#dbb16e;}.f{fill:#c97d49;}.g{fill:#b26e3f;}.h{fill:#bf723d;}.i{fill:#a05d30;}.j{fill:#f2cd83;}.k{fill:#f9d79b;}.l{fill:#7a746f;}.m{fill:#e8be74;}.n{fill:#d18146;}.o{fill:#eab871;}.p{fill:#e5b767;}</style></defs><g transform="translate(0 -0.006)"><path class="a" d="M78.754,38.809l-2.973-1.731a28.542,28.542,0,1,0,2.973,1.731Z" transform="translate(-30.039 -29.635)"/><path class="b" d="M66.009,90a28.023,28.023,0,0,1-2.061-55.969,28.517,28.517,0,1,0,10,54.828A28.011,28.011,0,0,1,66.009,90Z" transform="translate(-30.039 -29.641)"/><path class="c" d="M32.91.006a32.91,32.91,0,1,0,32.91,32.91A32.91,32.91,0,0,0,32.91.006Zm0,60.92a28.01,28.01,0,1,1,28.01-28.01A28.01,28.01,0,0,1,32.91,60.926Z"/><path class="d" d="M273.065,84.923a28.5,28.5,0,0,0-4.588-43.669L265.5,39.523a28.523,28.523,0,0,0-8.286-2.7A32.923,32.923,0,0,0,273.065,84.923Z" transform="translate(-219.762 -32.08)"/><path class="e" d="M236.124,388.9a.33.33,0,0,0-.658.031l-4.591-.082c-.218-.181-.366-.281-.373-.286a.331.331,0,0,0-.365.553c.147.1,3.562,2.414,1.611,5.647a.332.332,0,0,0,.373.49A5.783,5.783,0,0,0,236.124,388.9Z" transform="translate(-200.419 -338.551)"/><path class="f" d="M286.656,98.323c-11.524,14.059-10.885,13.173-10.832,13.443a.4.4,0,0,0,.2.273c5.22,2.806,4.881,2.647,5.024,2.647a.4.4,0,0,0,.393-.339c.189-.648,3.612-9.664,5.891-15.631A.4.4,0,0,0,286.656,98.323Zm-5.3,15.715a.424.424,0,0,1,.038.057A.4.4,0,0,0,281.359,114.038Zm.08.169a.365.365,0,0,1,.008.1A.4.4,0,0,0,281.439,114.207Zm-.033-.1a.4.4,0,0,1,.033.095A.392.392,0,0,0,281.406,114.111Z" transform="translate(-240.346 -85.549)"/><path class="g" d="M285.358,103.9c.685-1.8,1.371-3.6,1.976-5.187a.4.4,0,0,0-.678-.394c-11.524,14.059-10.885,13.173-10.832,13.443.048.245.066.2,2.051,1.267Z" transform="translate(-240.346 -85.55)"/><path class="h" d="M146.579,98.334a.4.4,0,0,0-.678.394c5.509,14.424,5.955,15.795,5.955,15.795a.4.4,0,0,0,.517.127c5.239-2.817,4.987-2.618,5.038-2.873S158.16,112.463,146.579,98.334Zm5.209,15.985a.375.375,0,0,1,.008-.1A.394.394,0,0,0,151.788,114.319Zm.008-.1a.421.421,0,0,1,.033-.095A.405.405,0,0,0,151.8,114.217Zm.042-.111a.412.412,0,0,1,.038-.057A.4.4,0,0,0,151.838,114.106Z" transform="translate(-127.121 -85.56)"/><path class="i" d="M154.315,113.121a.4.4,0,0,1-.393-.339c-.136-.465-1.938-5.242-3.787-10.107l-3.557-4.34a.4.4,0,0,0-.678.394c5.509,14.424,5.955,15.795,5.955,15.795a.4.4,0,0,0,.517.127c5.239-2.817,4.987-2.618,5.038-2.873a.4.4,0,0,0-.033-.249C154.249,113.209,154.454,113.121,154.315,113.121Z" transform="translate(-127.12 -85.561)"/><path class="j" d="M166.441,200.12a8.9,8.9,0,0,0-6.775-.718c-4.381-4.1-12.477-4.173-16.94,0a8.894,8.894,0,0,0-6.775.718.331.331,0,0,0-.185.323c0,.051.455,5.085,5.411,5.085a8.528,8.528,0,0,0,1.326-.11c-2.8,4.576,3.361,7.569,2.383,12.083-.839,3.87,2.453,5.363,6.31,5.048,1.887.154,4.5-.173,5.723-1.686a3.835,3.835,0,0,0,.586-3.363c-.979-4.515,5.179-7.506,2.383-12.083a8.272,8.272,0,0,0,1.326.11c4.956,0,5.406-5.034,5.411-5.085A.331.331,0,0,0,166.441,200.12Z" transform="translate(-118.313 -171.06)"/><path class="k" d="M268.907,200.233a8.9,8.9,0,0,0-6.775-.718,12.124,12.124,0,0,0-8.47-3.069c-.046,0-.154-.008-.314-.009a32.722,32.722,0,0,0,7.156,17.611c1.246-2.72,3.849-5.246,1.851-8.517a8.275,8.275,0,0,0,1.326.11c4.956,0,5.406-5.034,5.411-5.085A.331.331,0,0,0,268.907,200.233Z" transform="translate(-220.779 -171.174)"/><g transform="translate(27.494 36.834)"><path class="l" d="M216.543,289.148c-.429.431-1.324.235-2-.438s-.876-1.567-.447-2,1.325-.235,2,.438S216.972,288.717,216.543,289.148Z" transform="translate(-213.87 -286.483)"/><path class="l" d="M275.406,289.148c.429.431,1.325.235,2-.438s.876-1.567.447-2-1.325-.235-2,.438S274.977,288.717,275.406,289.148Z" transform="translate(-267.298 -286.483)"/></g><g transform="translate(31.89 25.263)"><path class="m" d="M249.058,357.423a.994.994,0,0,0-.993.993v4.569c.389.006.725-.006.993-.028.268.022.6.034.993.028v-4.569A.994.994,0,0,0,249.058,357.423Z" transform="translate(-248.065 -336.731)"/><path class="m" d="M250.259,196.49c-.429-.025-1.548-.027-1.986,0v4.94a.993.993,0,1,0,1.986,0V196.49Z" transform="translate(-248.246 -196.47)"/></g><path class="n" d="M244.721,345.06a1.916,1.916,0,0,1-3.833,0c0-1.058.858-.71,1.916-.71S244.721,344,244.721,345.06Z" transform="translate(-209.92 -300.028)"/><path class="o" d="M309.811,59.961c15.973-18.706,6.417-47.893-17.622-53.428a32.945,32.945,0,0,0-3.17,4.381,28.011,28.011,0,0,1,15.645,47.409A32.6,32.6,0,0,0,309.811,59.961Z" transform="translate(-251.864 -5.688)"/><path class="p" d="M147.493,218.653a6.359,6.359,0,0,0-1.007-4.5,7.911,7.911,0,0,1-1.423-2.566h0a3.324,3.324,0,0,1-.386-1.222,11.474,11.474,0,0,1,4.32-12.74,13.127,13.127,0,0,0-1.772.4h0a11.262,11.262,0,0,0-4.5,2.534,8.894,8.894,0,0,0-6.775.718.331.331,0,0,0-.185.323c0,.051.455,5.085,5.411,5.085a8.526,8.526,0,0,0,1.326-.11c-1.941,3.176.447,5.619,1.793,8.392a7.69,7.69,0,0,1,.51,1.349,4.9,4.9,0,0,1,.08,2.343c-.839,3.87,2.453,5.363,6.31,5.048a11.23,11.23,0,0,0,1.3.019C149.056,223.574,146.767,222.007,147.493,218.653Z" transform="translate(-118.313 -172.212)"/></g></svg>