<svg xmlns="http://www.w3.org/2000/svg" width="24" height="22" viewBox="0 0 24 22"><style>.a,.b{fill:#fff;}.a{opacity:0;}</style><g transform="translate(0 0)"><g transform="translate(0 0)"><rect class="a" width="24" height="22" transform="translate(0 0)"/><rect class="b" width="4" height="8" transform="translate(9 13)"/><path class="b" d="M19.458,9.622,12.174,2.28a.954.954,0,0,0-1.342,0L3.548,9.632A1.85,1.85,0,0,0,3,10.964v7.808a1.875,1.875,0,0,0,1.786,1.864H7.724V12.25a.938.938,0,0,1,.945-.932h5.669a.938.938,0,0,1,.945.932v8.386H18.22a1.875,1.875,0,0,0,1.786-1.864V10.964a1.915,1.915,0,0,0-.548-1.342Z" transform="translate(0.459 -0.045)"/></g></g></svg>