<svg xmlns="http://www.w3.org/2000/svg" width="21" height="22" viewBox="0 0 21 22"><defs><style>.a,.b{fill:#fff;}.a{opacity:0;}</style></defs><g transform="translate(0 0)"><rect class="a" width="21" height="22" transform="translate(0 0)"/><path class="b" d="M8.779,10.454A3.727,3.727,0,1,0,5,6.727,3.753,3.753,0,0,0,8.779,10.454Z" transform="translate(-2.026 -0.113)"/><path class="b" d="M16.834,12.591A2.8,2.8,0,1,0,14,9.8,2.815,2.815,0,0,0,16.834,12.591Z" transform="translate(-2.523 -0.386)"/><path class="b" d="M19.951,19.523a.938.938,0,0,0,.945-.932,4.653,4.653,0,0,0-2.645-4.18,4.778,4.778,0,0,0-4.97.5,6.681,6.681,0,0,0-7.2-1.4A6.522,6.522,0,0,0,2,19.523a.938.938,0,0,0,.945.932H14.282a.938.938,0,0,0,.945-.932" transform="translate(-1.86 -0.796)"/></g></svg>