<svg xmlns="http://www.w3.org/2000/svg" width="67.079" height="67.078" viewBox="0 0 67.079 67.078"><defs><style>.a{fill:#b2d8e3;}.b{fill:#79b5bf;}.c{fill:#e0af60;}.d{fill:#c5e8ef;}.e{fill:#e2ca3b;}.f{fill:#ccae2f;}.g{fill:#eace49;}.h{fill:#d8bd36;}.i{fill:#ead154;}.j{fill:#c6b63e;}.k{fill:#ad9a2b;}.l{fill:#d8d8d8;}.m{fill:#efbe78;}</style></defs><path class="a" d="M80.188,39.2l-3.026-1.762A29.051,29.051,0,1,0,80.188,39.2Z" transform="translate(-30.513 -29.819)"/><path class="b" d="M68.126,34.6a29.026,29.026,0,1,0,4.155,56.613A28.558,28.558,0,1,1,68.126,34.6Z" transform="translate(-30.513 -29.825)"/><path class="c" d="M33.539,0A33.539,33.539,0,1,0,67.078,33.544,33.539,33.539,0,0,0,33.539,0Zm0,62.085A28.545,28.545,0,1,1,62.084,33.544,28.545,28.545,0,0,1,33.539,62.09Z" transform="translate(0 -0.005)"/><path class="d" d="M273.524,86.039a29.012,29.012,0,0,0-4.643-44.476L265.855,39.8a29.032,29.032,0,0,0-8.5-2.763A33.581,33.581,0,0,0,273.524,86.039Z" transform="translate(-219.206 -32.186)"/><path class="e" d="M188.336,189.235c-11.275,0-6.927,22.374-13.067,24.831-3.757,1.5-7.033-1.067-9.253-4.451a.607.607,0,0,0-1.1.191,11.694,11.694,0,0,1-3.74,5.917.608.608,0,0,0,.473,1.059,21.547,21.547,0,0,1,7.678.532c16.666,4.406,24.553-6.971,25.15-17.109C194.82,194.4,192.645,189.235,188.336,189.235Z" transform="translate(-139.882 -164.443)"/><path class="f" d="M261.288,214.964c4.459,0,5.162-4.1,6.3-11.251.938-5.925,1.963-12.453,6.094-14.482-6.783-.236-8.071,7.925-9.154,14.484-1.2,7.25-1.931,10.238-5.549,10.732A5.607,5.607,0,0,0,261.288,214.964Z" transform="translate(-225.046 -164.436)"/><path class="g" d="M307.479,189.235c-7.405,0-8.089,9.7-9.4,16.99a33.7,33.7,0,0,0,8.456,8.427,20.091,20.091,0,0,0,7.09-14.446C313.963,194.4,311.788,189.235,307.479,189.235Z" transform="translate(-259.025 -164.443)"/><path class="h" d="M298.078,206.218a33.818,33.818,0,0,0,2.454,3.109c1.626-6.675,1.615-17.389,7.125-20.1C300.113,188.969,299.371,199.037,298.078,206.218Z" transform="translate(-259.026 -164.437)"/><path class="i" d="M127.392,103.738c-6.163.737-8.7-1.514-14.7-1.514-20.885,0-22.259,29.2-11.974,29.2,6.7,0,7.944-7.892,9.043-14.545a39.909,39.909,0,0,1,1.737-7.557,4.568,4.568,0,0,1,2.313-2.734,5.856,5.856,0,0,1,2.179-.437c3.307,0,5.8,3.046,6.992,4.862a.675.675,0,0,0,1.22-.212,11.63,11.63,0,0,1,3.719-5.882A.676.676,0,0,0,127.392,103.738Z" transform="translate(-82.091 -88.832)"/><path class="h" d="M114.074,102.281c-23.149-1.51-24.353,31.8-11.846,28.969C93.682,128.941,95.471,103.549,114.074,102.281Z" transform="translate(-81.968 -88.838)"/><path class="g" d="M267.283,105.612c-5.068.606-7.515-.709-11.038-1.232a33.289,33.289,0,0,0-.795,3.66c3.1-.251,5.712,2.241,7.42,4.843a.675.675,0,0,0,1.22-.212,11.631,11.631,0,0,1,3.719-5.882.675.675,0,0,0-.526-1.177Z" transform="translate(-221.983 -90.705)"/><path class="j" d="M315.491,188.721c-5.141,0-7.063,4.606-8.194,9.868h0s9.164,6.344,14.389,1.4C322.109,193.957,319.845,188.721,315.491,188.721Z" transform="translate(-267.037 -163.997)"/><path class="k" d="M307.755,199.069a22.592,22.592,0,0,0,2.731,1.527c.787-4.449,2.009-9.611,5.581-11.365C310.81,189.048,308.851,193.948,307.755,199.069Z" transform="translate(-267.435 -164.435)"/><path class="j" d="M100.728,237.814c5.141,0,7.063-4.606,8.194-9.868h0s-9.164-6.344-14.389-1.4C94.11,232.578,96.374,237.814,100.728,237.814Z" transform="translate(-82.104 -195.226)"/><path class="k" d="M101.635,239.129c.1-.011.36-.049.407-.058.125-.021.3-.058.354-.071-3.97-1.075-5.532-7.012-4.68-12.773a6.683,6.683,0,0,0-3.149,1.677c-.306,4.4.907,10.306,5.186,11.173.091.018.209.038.311.052s.215.027.33.034a6.279,6.279,0,0,0,.816,0C101.258,239.162,101.559,239.138,101.635,239.129Z" transform="translate(-82.139 -196.59)"/><g transform="translate(17.499 29.583)"><path class="l" d="M355.147,227.562a1.755,1.755,0,1,1-1.755-1.755A1.755,1.755,0,0,1,355.147,227.562Z" transform="translate(-323.067 -225.807)"/><ellipse class="l" cx="1.755" cy="1.755" rx="1.755" ry="1.755" transform="translate(0 4.636)"/></g><g transform="translate(18.136 22.311)"><path class="j" d="M321.944,299.317a3.743,3.743,0,0,1-3.7-3.313,4.463,4.463,0,0,1,1.267-3.044,1.012,1.012,0,0,1,1.447,1.417,2.46,2.46,0,0,0-.691,1.537,1.329,1.329,0,0,0,.555.938,1.575,1.575,0,0,0,2.556-1.716,1.012,1.012,0,0,1,1.943-.569A3.612,3.612,0,0,1,321.944,299.317Z" transform="translate(-294.684 -276.627)"/><path class="j" d="M143.681,176.96a1.013,1.013,0,0,1-.725-1.719,2.459,2.459,0,0,0,.69-1.537,1.683,1.683,0,0,0-2.486-1.131,1.634,1.634,0,0,0-.625,1.908,1.012,1.012,0,1,1-1.943.569,3.625,3.625,0,1,1,5.811,1.607A1.01,1.01,0,0,1,143.681,176.96Z" transform="translate(-138.424 -170.3)"/></g><path class="m" d="M310.208,60.986c16.278-19.065,6.54-48.809-17.958-54.45A33.57,33.57,0,0,0,289.018,11a28.546,28.546,0,0,1,15.943,48.316A33.259,33.259,0,0,0,310.208,60.986Z" transform="translate(-251.153 -5.68)"/></svg>