<svg xmlns="http://www.w3.org/2000/svg" width="63.261" height="63.26" viewBox="0 0 63.261 63.26"><defs><style>.a{fill:#82e3f9;}.b{fill:#6ad3ef;}.c{fill:#a4effc;}.d{fill:#42aed3;}.e{fill:#50c3e2;}.f{fill:#36a2bf;}.g{fill:#30a3c1;}.h{fill:#54c4e2;}.i{fill:#2e93aa;}</style></defs><path class="a" d="M74.2,35.585,71.3,33.9a27.817,27.817,0,1,0,2.9,1.687Z" transform="translate(-27.202 -27.092)"/><path class="b" d="M61.647,85.442a26.927,26.927,0,1,1,5.037-53.379A27.79,27.79,0,1,0,70.4,83.986,26.878,26.878,0,0,1,61.647,85.442Z" transform="translate(-27.203 -27.099)"/><path class="c" d="M272.665,80.733a27.783,27.783,0,0,0-4.6-42.43l-2.9-1.687a27.832,27.832,0,0,0-7.88-2.6A31.634,31.634,0,0,0,272.665,80.733Z" transform="translate(-221.062 -29.81)"/><path class="d" d="M31.63,0a31.63,31.63,0,1,0,31.63,31.63A31.63,31.63,0,0,0,31.63,0Zm0,58.551A26.921,26.921,0,1,1,58.55,31.635,26.92,26.92,0,0,1,31.63,58.556Z" transform="translate(0 -0.005)"/><path class="e" d="M309,57.886c15.351-17.98,6.168-46.03-16.937-51.351a31.717,31.717,0,0,0-3.047,4.211,27.223,27.223,0,0,1,10.827,4.192,26.926,26.926,0,0,1,4.209,41.374A31.39,31.39,0,0,0,309,57.886Z" transform="translate(-253.308 -5.728)"/><g transform="translate(14.998 23.48)"><path class="f" d="M276.8,198.034l-3.5-1.857a.955.955,0,0,1,.9-1.686l3.079,1.636a6.96,6.96,0,0,0,3.518-4.342.955.955,0,1,1,1.844.494,8.9,8.9,0,0,1-5.054,5.8A.957.957,0,0,1,276.8,198.034Z" transform="translate(-254.09 -190.949)"/><path class="f" d="M278.544,235.308a.955.955,0,0,1,.785-1.741l3.494,1.576a7.1,7.1,0,0,0,4-4.087.955.955,0,1,1,1.821.575,9.1,9.1,0,0,1-5.551,5.455C282.622,237.238,282.709,237.186,278.544,235.308Z" transform="translate(-258.634 -225.404)"/><path class="f" d="M276.98,281.924a.955.955,0,0,1,1.11-1.553l2.78,1.987a6.3,6.3,0,0,0,4.156-2.857.955.955,0,1,1,1.673.92,8.31,8.31,0,0,1-5.947,3.9C280.27,284.374,280.322,284.313,276.98,281.924Z" transform="translate(-257.406 -268.014)"/><path class="f" d="M270.23,323.662a.955.955,0,0,1,1.11-1.554l2.8,2a7.88,7.88,0,0,0,2.863-.961.955.955,0,0,1,1.025,1.611,10.2,10.2,0,0,1-4.059,1.294C273.5,326.1,273.586,326.061,270.23,323.662Z" transform="translate(-251.489 -305.635)"/><path class="f" d="M138.678,197.113c-.622,0-4.3-1.775-5.393-5.867a.955.955,0,1,1,1.844-.494,6.992,6.992,0,0,0,3.52,4.341l3.077-1.635a.955.955,0,0,1,.9,1.686C138.829,197.159,139,197.113,138.678,197.113Z" transform="translate(-131.785 -190.043)"/><path class="f" d="M127.277,236.1a8.768,8.768,0,0,1-5.845-5.5.955.955,0,1,1,1.821-.574,7.1,7.1,0,0,0,4,4.086l3.493-1.576a.955.955,0,0,1,.785,1.741C127.338,236.165,127.559,236.1,127.277,236.1Z" transform="translate(-121.387 -224.499)"/><path class="f" d="M132.62,283.29a8.313,8.313,0,0,1-5.947-3.9.955.955,0,1,1,1.673-.919,6.294,6.294,0,0,0,4.155,2.857l2.78-1.987a.955.955,0,0,1,1.11,1.553C133.06,283.279,133.1,283.348,132.62,283.29Z" transform="translate(-125.916 -267.114)"/><path class="f" d="M150.78,325.033a10.07,10.07,0,0,1-4.139-1.3.955.955,0,1,1,1.025-1.611,7.876,7.876,0,0,0,2.863.96l2.8-2a.955.955,0,1,1,1.111,1.553C151.07,325.045,151.188,325.033,150.78,325.033Z" transform="translate(-143.133 -304.735)"/></g><path class="d" d="M222.183,178.513c-.993-1.778-1.059.016-1.059.016a4.449,4.449,0,0,1-1.192,3.067,2.27,2.27,0,0,0-.843,2.732,1.936,1.936,0,0,0,1.831,1.389s-1.321,6.851-6.648,7.894c-2.362.609-4.1-.2-5.712-1.986a6.268,6.268,0,0,1-.48-5.875c.209-.44.35-.807.35-.807h0a23,23,0,0,0,1.362-8.193c0-11.89-6.4-15.957-9.509-8.378-1.787,4.35-1.867,10.961-.445,15.513h0a28.848,28.848,0,0,0,6.336,10.48,9.518,9.518,0,0,0,6.113,2.995l-.017-.019c6,.41,10.7-5.518,11.161-12.671A10.353,10.353,0,0,0,222.183,178.513Z" transform="translate(-174.278 -144.201)"/><path class="g" d="M214.211,197.345c-5.584-1.033-9.659-8.035-11.572-13.358h0c-2.087-6.68-.78-16.851,3.08-18.968-1.588-.87-3.855-.4-5.44,3.455-1.787,4.35-1.867,10.961-.445,15.513h0a28.847,28.847,0,0,0,6.336,10.48,9.518,9.518,0,0,0,6.113,2.995l-.017-.019A8.35,8.35,0,0,0,214.211,197.345Z" transform="translate(-174.277 -144.306)"/><g transform="translate(31.167 20.584)"><path class="h" d="M359.787,272.144a4.448,4.448,0,0,1-1.192,3.067,2.271,2.271,0,0,0-.843,2.733,1.936,1.936,0,0,0,1.831,1.389,13.369,13.369,0,0,1-2.526,5.345q1.17.857,2.42,1.608a16.172,16.172,0,0,0,2.613-8,10.355,10.355,0,0,0-1.244-6.156C359.852,270.35,359.787,272.144,359.787,272.144Z" transform="translate(-344.107 -258.4)"/><path class="h" d="M252.259,166.6a31.466,31.466,0,0,0,4.011,16.2C257.323,176.175,255.75,168.117,252.259,166.6Z" transform="translate(-252.25 -166.598)"/></g><g transform="translate(26.922 26.528)"><path class="i" d="M223.039,216.62h-4.2a.955.955,0,1,1,0-1.909h4.2a.955.955,0,0,1,0,1.909Z" transform="translate(-217.888 -214.711)"/><path class="i" d="M223.039,247.24h-4.2a.955.955,0,0,1,0-1.91h4.2a.955.955,0,0,1,0,1.91Z" transform="translate(-217.888 -241.547)"/><path class="i" d="M223.039,277.864h-4.2a.955.955,0,1,1,0-1.909h4.2a.955.955,0,0,1,0,1.909Z" transform="translate(-217.888 -268.388)"/><path class="i" d="M223.039,308.484h-4.2a.955.955,0,1,1,0-1.909h4.2a.955.955,0,0,1,0,1.909Z" transform="translate(-217.888 -295.224)"/></g><g transform="translate(17.917 10.436)"><path class="f" d="M273.181,161.178a.954.954,0,0,1,0-1.909,4.693,4.693,0,0,0,3.063-1.227,4.17,4.17,0,0,0,1.065-3.083.955.955,0,0,1,1.91-.012,5.993,5.993,0,0,1-1.634,4.455A6.591,6.591,0,0,1,273.181,161.178Z" transform="translate(-256.512 -145.408)"/><path class="f" d="M156.365,154.949a.955.955,0,0,1,1.91.012,4.163,4.163,0,0,0,1.076,3.093,4.843,4.843,0,0,0,3.047,1.217s0,0,.005,0a.954.954,0,0,1,0,1.909A5.866,5.866,0,0,1,156.365,154.949Z" transform="translate(-154.962 -145.409)"/><path class="f" d="M311.022,84.623a.319.319,0,0,0-.588.143c0,.029-.236,2.929-1.34,4.141a.317.317,0,0,0,.452.445l2.563,2.721c-.013.072-.028.144-.043.216a.318.318,0,0,0,.621.137C313.506,88.7,311.124,84.788,311.022,84.623Z" transform="translate(-288.745 -84.472)"/><path class="f" d="M147.439,84.766a.319.319,0,0,0-.588-.143c-.1.165-2.484,4.074-1.666,7.8a.318.318,0,0,0,.622-.137c-.016-.072-.03-.144-.043-.216l2.563-2.721a.317.317,0,0,0,.452-.445C147.675,87.695,147.441,84.8,147.439,84.766Z" transform="translate(-145.014 -84.472)"/></g><g transform="translate(18.055 9.405)"><path class="d" d="M291.883,84.531a.318.318,0,0,0-.178-.257c-4.191-2.029-4.853-7.806-4.859-7.864a.318.318,0,0,0-.6-.113,8.1,8.1,0,0,0,.1,8.013,10.943,10.943,0,0,0,2.62,3.113.319.319,0,0,0,.235.062A2.8,2.8,0,0,0,291.883,84.531Z" transform="translate(-268.049 -76.125)"/><path class="d" d="M151.172,76.408c-.006.058-.662,5.833-4.859,7.864a.318.318,0,0,0-.178.257,2.8,2.8,0,0,0,2.68,2.954c.373.052,6.272-4.8,2.956-11.188A.319.319,0,0,0,151.172,76.408Z" transform="translate(-146.131 -76.124)"/></g><g transform="translate(25.229 19.293)"><path class="f" d="M258.719,156.841h0a1.645,1.645,0,0,1-.768,1.012.955.955,0,0,0,1.045,1.6,3.511,3.511,0,0,0,1.568-2.145C260.891,156.1,259.162,155.69,258.719,156.841Z" transform="translate(-250.929 -156.16)"/><path class="f" d="M204.943,156.169a1.06,1.06,0,0,1,1.118.667h0a1.642,1.642,0,0,0,.768,1.012.955.955,0,1,1-1.045,1.6,3.511,3.511,0,0,1-1.567-2.145A.882.882,0,0,1,204.943,156.169Z" transform="translate(-204.188 -156.156)"/></g></svg>