<svg xmlns="http://www.w3.org/2000/svg" width="65.883" height="65.882" viewBox="0 0 65.883 65.882"><defs><style>.a{fill:#d8d8d8;}.b{fill:#bdc4c6;}.c{fill:#efefef;}.d{fill:#42aed3;}.e{fill:#e0af60;}.f{fill:#eac69b;}.g{fill:#f2d2af;}.h{fill:#2b9dbc;}.i{fill:#efbe78;}.j{fill:#dbb183;}.k{fill:#76b8e5;}.l{fill:#5da7d1;}</style></defs><path class="a" d="M78.707,39.8l-2.976-1.733A28.575,28.575,0,1,0,78.707,39.8Z" transform="translate(-29.948 -30.492)"/><path class="b" d="M65.969,35.164a28.551,28.551,0,1,0,6.757,55.2,28.05,28.05,0,1,1-6.757-55.2Z" transform="translate(-29.948 -30.498)"/><path class="c" d="M273.262,85.788a28.536,28.536,0,0,0-4.693-43.618l-2.976-1.733a28.56,28.56,0,0,0-8.362-2.718A32.951,32.951,0,0,0,273.262,85.788Z" transform="translate(-219.81 -32.866)"/><path class="d" d="M217.467,317.058q.116-.549.274-1.091" transform="translate(-189.484 -275.31)"/><path class="e" d="M32.941,0A32.941,32.941,0,1,0,65.882,32.942,32.941,32.941,0,0,0,32.941,0Zm0,60.978A28.037,28.037,0,1,1,60.978,32.942,28.036,28.036,0,0,1,32.941,60.979Z" transform="translate(0 -0.001)"/><path class="f" d="M142.444,170.327c-.664-2.407-2.9-3.219-5.378-3.016a11.377,11.377,0,0,1-6.708-1.343l-.684-.022a.535.535,0,0,0-.544.47,9.461,9.461,0,0,1-6.188,7.09.531.531,0,0,0,.112,1.017,4.7,4.7,0,0,1,3.035,1.726,2.416,2.416,0,0,1,.012,2.178.531.531,0,0,0,.465.724l.313.017c-.465,2.5-.3,5.4,2.257,5.4a26.228,26.228,0,0,0,3.147-.418h0c3-.421,3.668,2.333,3.454,5.354-.457,6.464,6.874-9.148,6.874-9.148S145.414,173.65,142.444,170.327Z" transform="translate(-106.83 -144.593)"/><path class="g" d="M252.311,177.537a32.765,32.765,0,0,0,3.1,13.37c1.1-2.308,2.5-7.735.045-10.48A3.969,3.969,0,0,0,252.311,177.537Z" transform="translate(-219.844 -154.692)"/><path class="h" d="M335.925,397.082a2.465,2.465,0,0,0,.748.278.327.327,0,0,0-.065-.214C336.454,396.944,336.261,397.032,335.925,397.082Z" transform="translate(-292.699 -345.932)"/><path class="i" d="M311.254,60.262c15.832-18.605,6.517-47.72-17.495-53.393a32.975,32.975,0,0,0-3.155,4.374A28.036,28.036,0,0,1,306.128,58.6,32.668,32.668,0,0,0,311.254,60.262Z" transform="translate(-253.21 -5.985)"/><g transform="translate(15.777 21.353)"><path class="j" d="M131.569,166.53c-1.425-.623-.592-.542-1.892-.583a.535.535,0,0,0-.544.47,9.461,9.461,0,0,1-6.187,7.09.531.531,0,0,0,.112,1.017,4.7,4.7,0,0,1,3.035,1.726,2.416,2.416,0,0,1,.012,2.178.531.531,0,0,0,.465.724l.313.017c-1.076,5.79,2.257,5.4,2.257,5.4a10.067,10.067,0,0,0,1.553-.159A17.693,17.693,0,0,1,131.569,166.53Z" transform="translate(-122.61 -165.947)"/><path class="j" d="M224.582,355.578c.058.771.346.881.775.553Q224.961,355.865,224.582,355.578Z" transform="translate(-211.461 -331.177)"/></g><path class="d" d="M178.684,126.219a39.358,39.358,0,0,0,6.037-9.559A19.125,19.125,0,0,0,183.7,99.567c-6.291-11.891-11.5-4.63-14.437-5.978-3.364-1.545-7.24-3.305-10.329.267-3.109,3.595-.591,9.39,6.174,9.486,3.632.051,6.363,1.022,7.3,2.6.837,1.4.006,2.371-1.649,4.66a44.921,44.921,0,0,0-4.279,6.8c-4.793,10.241-1.026,20.266,10.379,17.483.154-.041,3.367-1.275,4.413-3.366a.332.332,0,0,0-.362-.473c-1.941.368-4.8.418-4.442-1.531A12.092,12.092,0,0,1,178.684,126.219Z" transform="translate(-137.33 -79.957)"/><g transform="translate(20.281 11.811)"><path class="h" d="M167.112,103.5a6.9,6.9,0,0,1-5.465-3.768c-1.588-3.538,1.118-6.952,4.022-7.556-2.7-.79-4.905-.415-6.74,1.707-3.109,3.595-.591,9.39,6.174,9.486A18.7,18.7,0,0,1,167.112,103.5Z" transform="translate(-157.61 -91.789)"/><path class="h" d="M216.444,197.368c2.014-4.189,5.112-7.653,5.994-9.347,1.116-2.148-1.411-4.63-7.371-4.714a11.054,11.054,0,0,1-1.112-.072c2.388.361,4.134,1.209,4.85,2.406.837,1.4.006,2.371-1.649,4.66a44.915,44.915,0,0,0-4.279,6.8c-4.344,9.28-1.633,18.658,7.721,17.922C213.984,213.307,212.833,205.088,216.444,197.368Z" transform="translate(-204.007 -171.469)"/></g><path class="k" d="M266.165,105.3c-5.242-9.908-9.725-6.519-12.791-5.893a32.969,32.969,0,0,0-1.059,10.424,4.808,4.808,0,0,1,2.563,1.842c.846,1.416-.043,2.437-1.565,4.544a32.872,32.872,0,0,0,8.5,14.9,36.59,36.59,0,0,0,5.375-8.72A19.124,19.124,0,0,0,266.165,105.3Z" transform="translate(-219.8 -85.686)"/><path class="l" d="M252.517,184.178q.01.222.022.443a5.536,5.536,0,0,1,2.252,1.416c1.249,1.435.59,2.6-1.254,4.97a32.687,32.687,0,0,0,1.193,3.681c3.285-5.087,5.059-6.089,3.939-7.96C257.83,185.323,255.57,184.4,252.517,184.178Z" transform="translate(-220.024 -160.479)"/></svg>