<svg xmlns="http://www.w3.org/2000/svg" width="15.316" height="14.5" viewBox="0 0 15.316 14.5"><defs><style>.a{fill:#fff;}</style></defs><g transform="translate(0 0)"><g transform="translate(0 0)"><path class="a" d="M160.336,20.6l6.106-1.644-.323-.645a.866.866,0,0,0-1.152-.383L159.5,20.6Z" transform="translate(-156.757 -17.84)"/><path class="a" d="M328.042,86.46a.871.871,0,0,0-.227.031l-1.434.387L322,88.056h7.139l-.268-.97A.857.857,0,0,0,328.042,86.46Z" transform="translate(-316.462 -85.296)"/><path class="a" d="M13.574,215.56H.862a.863.863,0,0,0-.672.319.845.845,0,0,0-.158.307.867.867,0,0,0-.031.222v9.45a.854.854,0,0,0,.86.848H13.572a.854.854,0,0,0,.86-.848v-2.366h-5.1a1.453,1.453,0,0,1-1.462-1.442v-1.886a1.425,1.425,0,0,1,.414-1,1.455,1.455,0,0,1,.872-.426,1.472,1.472,0,0,1,.174-.01h5.1v-2.315A.852.852,0,0,0,13.574,215.56Z" transform="translate(0 -212.206)"/><path class="a" d="M498.967,436.983a.861.861,0,0,0-.3-.176.887.887,0,0,0-.279-.046H493.26a.854.854,0,0,0-.86.848V439.5a.854.854,0,0,0,.86.848h5.127a.891.891,0,0,0,.279-.046.854.854,0,0,0,.581-.8v-1.888A.84.84,0,0,0,498.967,436.983Zm-3.911,1.739a.427.427,0,0,1-.43.424h-.286a.427.427,0,0,1-.43-.424v-.282a.414.414,0,0,1,.165-.332.438.438,0,0,1,.265-.091h.286a.427.427,0,0,1,.43.424v.282Z" transform="translate(-483.931 -429.655)"/></g></g></svg>